<mxfile host="app.diagrams.net" agent="Mozilla/5.0 (Windows NT 10.0; Win64; x64) AppleWebKit/537.36 (KHTML, like Gecko) Chrome/131.0.0.0 Safari/537.36" version="26.0.6">
  <diagram name="Page-1" id="mJVvkpNCpndPSh1O5Aai">
    <mxGraphModel dx="2074" dy="1098" grid="1" gridSize="10" guides="1" tooltips="1" connect="1" arrows="1" fold="1" page="1" pageScale="1" pageWidth="1654" pageHeight="1169" math="0" shadow="0">
      <root>
        <mxCell id="0" />
        <mxCell id="1" parent="0" />
        <mxCell id="KPfUx6lq5Uz68m5Np5U6-11" value="" style="shape=table;startSize=0;container=1;collapsible=0;childLayout=tableLayout;fontSize=16;" parent="1" vertex="1">
          <mxGeometry x="120" y="160" width="1440" height="40" as="geometry" />
        </mxCell>
        <mxCell id="KPfUx6lq5Uz68m5Np5U6-12" value="" style="shape=tableRow;horizontal=0;startSize=0;swimlaneHead=0;swimlaneBody=0;strokeColor=inherit;top=0;left=0;bottom=0;right=0;collapsible=0;dropTarget=0;fillColor=none;points=[[0,0.5],[1,0.5]];portConstraint=eastwest;fontSize=16;" parent="KPfUx6lq5Uz68m5Np5U6-11" vertex="1">
          <mxGeometry width="1440" height="40" as="geometry" />
        </mxCell>
        <mxCell id="KPfUx6lq5Uz68m5Np5U6-13" value="Material_ID" style="shape=partialRectangle;html=1;whiteSpace=wrap;connectable=0;strokeColor=inherit;overflow=hidden;fillColor=none;top=0;left=0;bottom=0;right=0;pointerEvents=1;fontSize=16;" parent="KPfUx6lq5Uz68m5Np5U6-12" vertex="1">
          <mxGeometry width="120" height="40" as="geometry">
            <mxRectangle width="120" height="40" as="alternateBounds" />
          </mxGeometry>
        </mxCell>
        <mxCell id="KPfUx6lq5Uz68m5Np5U6-14" value="Material_Name" style="shape=partialRectangle;html=1;whiteSpace=wrap;connectable=0;strokeColor=inherit;overflow=hidden;fillColor=none;top=0;left=0;bottom=0;right=0;pointerEvents=1;fontSize=16;" parent="KPfUx6lq5Uz68m5Np5U6-12" vertex="1">
          <mxGeometry x="120" width="120" height="40" as="geometry">
            <mxRectangle width="120" height="40" as="alternateBounds" />
          </mxGeometry>
        </mxCell>
        <mxCell id="KPfUx6lq5Uz68m5Np5U6-15" value="Material_Type" style="shape=partialRectangle;html=1;whiteSpace=wrap;connectable=0;strokeColor=inherit;overflow=hidden;fillColor=none;top=0;left=0;bottom=0;right=0;pointerEvents=1;fontSize=16;" parent="KPfUx6lq5Uz68m5Np5U6-12" vertex="1">
          <mxGeometry x="240" width="120" height="40" as="geometry">
            <mxRectangle width="120" height="40" as="alternateBounds" />
          </mxGeometry>
        </mxCell>
        <mxCell id="KPfUx6lq5Uz68m5Np5U6-24" value="Units" style="shape=partialRectangle;html=1;whiteSpace=wrap;connectable=0;strokeColor=inherit;overflow=hidden;fillColor=none;top=0;left=0;bottom=0;right=0;pointerEvents=1;fontSize=16;" parent="KPfUx6lq5Uz68m5Np5U6-12" vertex="1">
          <mxGeometry x="360" width="120" height="40" as="geometry">
            <mxRectangle width="120" height="40" as="alternateBounds" />
          </mxGeometry>
        </mxCell>
        <mxCell id="KPfUx6lq5Uz68m5Np5U6-27" value="Cost" style="shape=partialRectangle;html=1;whiteSpace=wrap;connectable=0;strokeColor=inherit;overflow=hidden;fillColor=none;top=0;left=0;bottom=0;right=0;pointerEvents=1;fontSize=16;" parent="KPfUx6lq5Uz68m5Np5U6-12" vertex="1">
          <mxGeometry x="480" width="120" height="40" as="geometry">
            <mxRectangle width="120" height="40" as="alternateBounds" />
          </mxGeometry>
        </mxCell>
        <mxCell id="KPfUx6lq5Uz68m5Np5U6-30" value="Unit_Price" style="shape=partialRectangle;html=1;whiteSpace=wrap;connectable=0;strokeColor=inherit;overflow=hidden;fillColor=none;top=0;left=0;bottom=0;right=0;pointerEvents=1;fontSize=16;" parent="KPfUx6lq5Uz68m5Np5U6-12" vertex="1">
          <mxGeometry x="600" width="120" height="40" as="geometry">
            <mxRectangle width="120" height="40" as="alternateBounds" />
          </mxGeometry>
        </mxCell>
        <mxCell id="KPfUx6lq5Uz68m5Np5U6-33" value="Vendor_ID" style="shape=partialRectangle;html=1;whiteSpace=wrap;connectable=0;strokeColor=inherit;overflow=hidden;fillColor=none;top=0;left=0;bottom=0;right=0;pointerEvents=1;fontSize=16;" parent="KPfUx6lq5Uz68m5Np5U6-12" vertex="1">
          <mxGeometry x="720" width="120" height="40" as="geometry">
            <mxRectangle width="120" height="40" as="alternateBounds" />
          </mxGeometry>
        </mxCell>
        <mxCell id="KPfUx6lq5Uz68m5Np5U6-36" value="Vendor_Name" style="shape=partialRectangle;html=1;whiteSpace=wrap;connectable=0;strokeColor=inherit;overflow=hidden;fillColor=none;top=0;left=0;bottom=0;right=0;pointerEvents=1;fontSize=16;" parent="KPfUx6lq5Uz68m5Np5U6-12" vertex="1">
          <mxGeometry x="840" width="120" height="40" as="geometry">
            <mxRectangle width="120" height="40" as="alternateBounds" />
          </mxGeometry>
        </mxCell>
        <mxCell id="KPfUx6lq5Uz68m5Np5U6-39" value="Terms_Code" style="shape=partialRectangle;html=1;whiteSpace=wrap;connectable=0;strokeColor=inherit;overflow=hidden;fillColor=none;top=0;left=0;bottom=0;right=0;pointerEvents=1;fontSize=16;" parent="KPfUx6lq5Uz68m5Np5U6-12" vertex="1">
          <mxGeometry x="960" width="120" height="40" as="geometry">
            <mxRectangle width="120" height="40" as="alternateBounds" />
          </mxGeometry>
        </mxCell>
        <mxCell id="KPfUx6lq5Uz68m5Np5U6-52" value="Terms" style="shape=partialRectangle;html=1;whiteSpace=wrap;connectable=0;strokeColor=inherit;overflow=hidden;fillColor=none;top=0;left=0;bottom=0;right=0;pointerEvents=1;fontSize=16;" parent="KPfUx6lq5Uz68m5Np5U6-12" vertex="1">
          <mxGeometry x="1080" width="120" height="40" as="geometry">
            <mxRectangle width="120" height="40" as="alternateBounds" />
          </mxGeometry>
        </mxCell>
        <mxCell id="KPfUx6lq5Uz68m5Np5U6-42" value="Purch_Date" style="shape=partialRectangle;html=1;whiteSpace=wrap;connectable=0;strokeColor=inherit;overflow=hidden;fillColor=none;top=0;left=0;bottom=0;right=0;pointerEvents=1;fontSize=16;" parent="KPfUx6lq5Uz68m5Np5U6-12" vertex="1">
          <mxGeometry x="1200" width="119" height="40" as="geometry">
            <mxRectangle width="119" height="40" as="alternateBounds" />
          </mxGeometry>
        </mxCell>
        <mxCell id="KPfUx6lq5Uz68m5Np5U6-45" value="Deliv_Date" style="shape=partialRectangle;html=1;whiteSpace=wrap;connectable=0;strokeColor=inherit;overflow=hidden;fillColor=none;top=0;left=0;bottom=0;right=0;pointerEvents=1;fontSize=16;" parent="KPfUx6lq5Uz68m5Np5U6-12" vertex="1">
          <mxGeometry x="1319" width="121" height="40" as="geometry">
            <mxRectangle width="121" height="40" as="alternateBounds" />
          </mxGeometry>
        </mxCell>
        <mxCell id="KPfUx6lq5Uz68m5Np5U6-56" value="" style="edgeStyle=elbowEdgeStyle;elbow=vertical;endArrow=classic;html=1;curved=0;rounded=0;endSize=8;startSize=8;exitX=0.039;exitY=-0.05;exitDx=0;exitDy=0;exitPerimeter=0;" parent="1" edge="1">
          <mxGeometry width="50" height="50" relative="1" as="geometry">
            <mxPoint x="179.99999999999986" y="158" as="sourcePoint" />
            <mxPoint x="299" y="150" as="targetPoint" />
            <Array as="points">
              <mxPoint x="250" y="120" />
              <mxPoint x="273.84000000000003" y="80" />
            </Array>
          </mxGeometry>
        </mxCell>
        <mxCell id="KPfUx6lq5Uz68m5Np5U6-58" value="" style="edgeStyle=segmentEdgeStyle;endArrow=classic;html=1;curved=0;rounded=0;endSize=8;startSize=8;" parent="1" edge="1">
          <mxGeometry width="50" height="50" relative="1" as="geometry">
            <mxPoint x="290" y="120" as="sourcePoint" />
            <mxPoint x="420" y="150" as="targetPoint" />
            <Array as="points">
              <mxPoint x="290" y="120" />
              <mxPoint x="420" y="120" />
            </Array>
          </mxGeometry>
        </mxCell>
        <mxCell id="KPfUx6lq5Uz68m5Np5U6-59" value="" style="edgeStyle=elbowEdgeStyle;elbow=vertical;endArrow=classic;html=1;curved=0;rounded=0;endSize=8;startSize=8;exitX=0.039;exitY=-0.05;exitDx=0;exitDy=0;exitPerimeter=0;" parent="1" edge="1">
          <mxGeometry width="50" height="50" relative="1" as="geometry">
            <mxPoint x="900" y="160" as="sourcePoint" />
            <mxPoint x="1020" y="150" as="targetPoint" />
            <Array as="points">
              <mxPoint x="960" y="120" />
            </Array>
          </mxGeometry>
        </mxCell>
        <mxCell id="KPfUx6lq5Uz68m5Np5U6-60" value="" style="edgeStyle=elbowEdgeStyle;elbow=vertical;endArrow=classic;html=1;curved=0;rounded=0;endSize=8;startSize=8;exitX=0.039;exitY=-0.05;exitDx=0;exitDy=0;exitPerimeter=0;" parent="1" edge="1">
          <mxGeometry width="50" height="50" relative="1" as="geometry">
            <mxPoint x="1140" y="160" as="sourcePoint" />
            <mxPoint x="1260" y="150" as="targetPoint" />
            <Array as="points">
              <mxPoint x="1200" y="120" />
            </Array>
          </mxGeometry>
        </mxCell>
        <mxCell id="KPfUx6lq5Uz68m5Np5U6-67" value="" style="shape=partialRectangle;whiteSpace=wrap;html=1;bottom=1;right=1;left=1;top=0;fillColor=none;routingCenterX=-0.5;" parent="1" vertex="1">
          <mxGeometry x="180" y="200" width="720" height="40" as="geometry" />
        </mxCell>
        <mxCell id="KPfUx6lq5Uz68m5Np5U6-68" value="" style="edgeStyle=segmentEdgeStyle;endArrow=classic;html=1;curved=0;rounded=0;endSize=8;startSize=8;exitX=0.99;exitY=1;exitDx=0;exitDy=0;exitPerimeter=0;" parent="1" source="KPfUx6lq5Uz68m5Np5U6-67" edge="1">
          <mxGeometry width="50" height="50" relative="1" as="geometry">
            <mxPoint x="790" y="280" as="sourcePoint" />
            <mxPoint x="1380" y="210" as="targetPoint" />
          </mxGeometry>
        </mxCell>
        <mxCell id="KPfUx6lq5Uz68m5Np5U6-70" value="" style="edgeStyle=segmentEdgeStyle;endArrow=classic;html=1;curved=0;rounded=0;endSize=8;startSize=8;" parent="1" edge="1">
          <mxGeometry width="50" height="50" relative="1" as="geometry">
            <mxPoint x="1360" y="240" as="sourcePoint" />
            <mxPoint x="1500" y="210" as="targetPoint" />
            <Array as="points">
              <mxPoint x="1500" y="240" />
            </Array>
          </mxGeometry>
        </mxCell>
        <mxCell id="KPfUx6lq5Uz68m5Np5U6-71" value="" style="edgeStyle=segmentEdgeStyle;endArrow=classic;html=1;curved=0;rounded=0;endSize=8;startSize=8;" parent="1" edge="1">
          <mxGeometry width="50" height="50" relative="1" as="geometry">
            <mxPoint x="410" y="120" as="sourcePoint" />
            <mxPoint x="540" y="150" as="targetPoint" />
            <Array as="points">
              <mxPoint x="410" y="120" />
              <mxPoint x="540" y="120" />
            </Array>
          </mxGeometry>
        </mxCell>
        <mxCell id="KPfUx6lq5Uz68m5Np5U6-72" value="" style="edgeStyle=segmentEdgeStyle;endArrow=classic;html=1;curved=0;rounded=0;endSize=8;startSize=8;" parent="1" edge="1">
          <mxGeometry width="50" height="50" relative="1" as="geometry">
            <mxPoint x="530" y="120" as="sourcePoint" />
            <mxPoint x="660" y="150" as="targetPoint" />
            <Array as="points">
              <mxPoint x="530" y="120" />
              <mxPoint x="660" y="120" />
            </Array>
          </mxGeometry>
        </mxCell>
        <mxCell id="KPfUx6lq5Uz68m5Np5U6-73" value="" style="edgeStyle=segmentEdgeStyle;endArrow=classic;html=1;curved=0;rounded=0;endSize=8;startSize=8;" parent="1" edge="1">
          <mxGeometry width="50" height="50" relative="1" as="geometry">
            <mxPoint x="650" y="120" as="sourcePoint" />
            <mxPoint x="780" y="150" as="targetPoint" />
            <Array as="points">
              <mxPoint x="650" y="120" />
              <mxPoint x="780" y="120" />
            </Array>
          </mxGeometry>
        </mxCell>
        <mxCell id="KPfUx6lq5Uz68m5Np5U6-75" value="" style="shape=table;startSize=0;container=1;collapsible=0;childLayout=tableLayout;fontSize=16;" parent="1" vertex="1">
          <mxGeometry x="120" y="1370" width="720" height="40" as="geometry" />
        </mxCell>
        <mxCell id="KPfUx6lq5Uz68m5Np5U6-76" value="" style="shape=tableRow;horizontal=0;startSize=0;swimlaneHead=0;swimlaneBody=0;strokeColor=inherit;top=0;left=0;bottom=0;right=0;collapsible=0;dropTarget=0;fillColor=none;points=[[0,0.5],[1,0.5]];portConstraint=eastwest;fontSize=16;" parent="KPfUx6lq5Uz68m5Np5U6-75" vertex="1">
          <mxGeometry width="720" height="40" as="geometry" />
        </mxCell>
        <mxCell id="KPfUx6lq5Uz68m5Np5U6-77" value="&lt;u&gt;Material_ID&lt;/u&gt;" style="shape=partialRectangle;html=1;whiteSpace=wrap;connectable=0;strokeColor=inherit;overflow=hidden;fillColor=none;top=0;left=0;bottom=0;right=0;pointerEvents=1;fontSize=16;" parent="KPfUx6lq5Uz68m5Np5U6-76" vertex="1">
          <mxGeometry width="120" height="40" as="geometry">
            <mxRectangle width="120" height="40" as="alternateBounds" />
          </mxGeometry>
        </mxCell>
        <mxCell id="KPfUx6lq5Uz68m5Np5U6-78" value="Material_Name" style="shape=partialRectangle;html=1;whiteSpace=wrap;connectable=0;strokeColor=inherit;overflow=hidden;fillColor=none;top=0;left=0;bottom=0;right=0;pointerEvents=1;fontSize=16;" parent="KPfUx6lq5Uz68m5Np5U6-76" vertex="1">
          <mxGeometry x="120" width="120" height="40" as="geometry">
            <mxRectangle width="120" height="40" as="alternateBounds" />
          </mxGeometry>
        </mxCell>
        <mxCell id="KPfUx6lq5Uz68m5Np5U6-79" value="Material_Type" style="shape=partialRectangle;html=1;whiteSpace=wrap;connectable=0;strokeColor=inherit;overflow=hidden;fillColor=none;top=0;left=0;bottom=0;right=0;pointerEvents=1;fontSize=16;" parent="KPfUx6lq5Uz68m5Np5U6-76" vertex="1">
          <mxGeometry x="240" width="120" height="40" as="geometry">
            <mxRectangle width="120" height="40" as="alternateBounds" />
          </mxGeometry>
        </mxCell>
        <mxCell id="KPfUx6lq5Uz68m5Np5U6-88" value="Units" style="shape=partialRectangle;html=1;whiteSpace=wrap;connectable=0;strokeColor=inherit;overflow=hidden;fillColor=none;top=0;left=0;bottom=0;right=0;pointerEvents=1;fontSize=16;" parent="KPfUx6lq5Uz68m5Np5U6-76" vertex="1">
          <mxGeometry x="360" width="120" height="40" as="geometry">
            <mxRectangle width="120" height="40" as="alternateBounds" />
          </mxGeometry>
        </mxCell>
        <mxCell id="KPfUx6lq5Uz68m5Np5U6-91" value="Unit_Price" style="shape=partialRectangle;html=1;whiteSpace=wrap;connectable=0;strokeColor=inherit;overflow=hidden;fillColor=none;top=0;left=0;bottom=0;right=0;pointerEvents=1;fontSize=16;" parent="KPfUx6lq5Uz68m5Np5U6-76" vertex="1">
          <mxGeometry x="480" width="120" height="40" as="geometry">
            <mxRectangle width="120" height="40" as="alternateBounds" />
          </mxGeometry>
        </mxCell>
        <mxCell id="KPfUx6lq5Uz68m5Np5U6-94" value="Cost" style="shape=partialRectangle;html=1;whiteSpace=wrap;connectable=0;strokeColor=inherit;overflow=hidden;fillColor=none;top=0;left=0;bottom=0;right=0;pointerEvents=1;fontSize=16;" parent="KPfUx6lq5Uz68m5Np5U6-76" vertex="1">
          <mxGeometry x="600" width="120" height="40" as="geometry">
            <mxRectangle width="120" height="40" as="alternateBounds" />
          </mxGeometry>
        </mxCell>
        <mxCell id="KPfUx6lq5Uz68m5Np5U6-97" value="" style="shape=table;startSize=0;container=1;collapsible=0;childLayout=tableLayout;fontSize=16;" parent="1" vertex="1">
          <mxGeometry x="120" y="1530" width="240" height="40" as="geometry" />
        </mxCell>
        <mxCell id="KPfUx6lq5Uz68m5Np5U6-98" value="" style="shape=tableRow;horizontal=0;startSize=0;swimlaneHead=0;swimlaneBody=0;strokeColor=inherit;top=0;left=0;bottom=0;right=0;collapsible=0;dropTarget=0;fillColor=none;points=[[0,0.5],[1,0.5]];portConstraint=eastwest;fontSize=16;" parent="KPfUx6lq5Uz68m5Np5U6-97" vertex="1">
          <mxGeometry width="240" height="40" as="geometry" />
        </mxCell>
        <mxCell id="KPfUx6lq5Uz68m5Np5U6-99" value="&lt;u&gt;Vendor_ID&lt;/u&gt;" style="shape=partialRectangle;html=1;whiteSpace=wrap;connectable=0;strokeColor=inherit;overflow=hidden;fillColor=none;top=0;left=0;bottom=0;right=0;pointerEvents=1;fontSize=16;" parent="KPfUx6lq5Uz68m5Np5U6-98" vertex="1">
          <mxGeometry width="120" height="40" as="geometry">
            <mxRectangle width="120" height="40" as="alternateBounds" />
          </mxGeometry>
        </mxCell>
        <mxCell id="KPfUx6lq5Uz68m5Np5U6-100" value="Vendor_Name" style="shape=partialRectangle;html=1;whiteSpace=wrap;connectable=0;strokeColor=inherit;overflow=hidden;fillColor=none;top=0;left=0;bottom=0;right=0;pointerEvents=1;fontSize=16;" parent="KPfUx6lq5Uz68m5Np5U6-98" vertex="1">
          <mxGeometry x="120" width="120" height="40" as="geometry">
            <mxRectangle width="120" height="40" as="alternateBounds" />
          </mxGeometry>
        </mxCell>
        <mxCell id="KPfUx6lq5Uz68m5Np5U6-105" value="" style="shape=table;startSize=0;container=1;collapsible=0;childLayout=tableLayout;fontSize=16;" parent="1" vertex="1">
          <mxGeometry x="120" y="1690" width="240" height="40" as="geometry" />
        </mxCell>
        <mxCell id="KPfUx6lq5Uz68m5Np5U6-106" value="" style="shape=tableRow;horizontal=0;startSize=0;swimlaneHead=0;swimlaneBody=0;strokeColor=inherit;top=0;left=0;bottom=0;right=0;collapsible=0;dropTarget=0;fillColor=none;points=[[0,0.5],[1,0.5]];portConstraint=eastwest;fontSize=16;" parent="KPfUx6lq5Uz68m5Np5U6-105" vertex="1">
          <mxGeometry width="240" height="40" as="geometry" />
        </mxCell>
        <mxCell id="KPfUx6lq5Uz68m5Np5U6-107" value="&lt;u&gt;Terms_Code&lt;/u&gt;" style="shape=partialRectangle;html=1;whiteSpace=wrap;connectable=0;strokeColor=inherit;overflow=hidden;fillColor=none;top=0;left=0;bottom=0;right=0;pointerEvents=1;fontSize=16;" parent="KPfUx6lq5Uz68m5Np5U6-106" vertex="1">
          <mxGeometry width="120" height="40" as="geometry">
            <mxRectangle width="120" height="40" as="alternateBounds" />
          </mxGeometry>
        </mxCell>
        <mxCell id="KPfUx6lq5Uz68m5Np5U6-108" value="Terms" style="shape=partialRectangle;html=1;whiteSpace=wrap;connectable=0;strokeColor=inherit;overflow=hidden;fillColor=none;top=0;left=0;bottom=0;right=0;pointerEvents=1;fontSize=16;" parent="KPfUx6lq5Uz68m5Np5U6-106" vertex="1">
          <mxGeometry x="120" width="120" height="40" as="geometry">
            <mxRectangle width="120" height="40" as="alternateBounds" />
          </mxGeometry>
        </mxCell>
        <mxCell id="KPfUx6lq5Uz68m5Np5U6-109" value="" style="shape=table;startSize=0;container=1;collapsible=0;childLayout=tableLayout;fontSize=16;" parent="1" vertex="1">
          <mxGeometry x="120" y="1850" width="480" height="40" as="geometry" />
        </mxCell>
        <mxCell id="KPfUx6lq5Uz68m5Np5U6-110" value="" style="shape=tableRow;horizontal=0;startSize=0;swimlaneHead=0;swimlaneBody=0;strokeColor=inherit;top=0;left=0;bottom=0;right=0;collapsible=0;dropTarget=0;fillColor=none;points=[[0,0.5],[1,0.5]];portConstraint=eastwest;fontSize=16;" parent="KPfUx6lq5Uz68m5Np5U6-109" vertex="1">
          <mxGeometry width="480" height="40" as="geometry" />
        </mxCell>
        <mxCell id="KPfUx6lq5Uz68m5Np5U6-111" value="&lt;u&gt;Material_ID&lt;/u&gt;" style="shape=partialRectangle;html=1;whiteSpace=wrap;connectable=0;strokeColor=inherit;overflow=hidden;fillColor=none;top=0;left=0;bottom=0;right=0;pointerEvents=1;fontSize=16;" parent="KPfUx6lq5Uz68m5Np5U6-110" vertex="1">
          <mxGeometry width="120" height="40" as="geometry">
            <mxRectangle width="120" height="40" as="alternateBounds" />
          </mxGeometry>
        </mxCell>
        <mxCell id="KPfUx6lq5Uz68m5Np5U6-112" value="&lt;u&gt;Vendor_ID&lt;/u&gt;" style="shape=partialRectangle;html=1;whiteSpace=wrap;connectable=0;strokeColor=inherit;overflow=hidden;fillColor=none;top=0;left=0;bottom=0;right=0;pointerEvents=1;fontSize=16;" parent="KPfUx6lq5Uz68m5Np5U6-110" vertex="1">
          <mxGeometry x="120" width="120" height="40" as="geometry">
            <mxRectangle width="120" height="40" as="alternateBounds" />
          </mxGeometry>
        </mxCell>
        <mxCell id="KPfUx6lq5Uz68m5Np5U6-114" value="Purch_Date" style="shape=partialRectangle;html=1;whiteSpace=wrap;connectable=0;strokeColor=inherit;overflow=hidden;fillColor=none;top=0;left=0;bottom=0;right=0;pointerEvents=1;fontSize=16;" parent="KPfUx6lq5Uz68m5Np5U6-110" vertex="1">
          <mxGeometry x="240" width="120" height="40" as="geometry">
            <mxRectangle width="120" height="40" as="alternateBounds" />
          </mxGeometry>
        </mxCell>
        <mxCell id="KPfUx6lq5Uz68m5Np5U6-113" value="Deliv_Date" style="shape=partialRectangle;html=1;whiteSpace=wrap;connectable=0;strokeColor=inherit;overflow=hidden;fillColor=none;top=0;left=0;bottom=0;right=0;pointerEvents=1;fontSize=16;" parent="KPfUx6lq5Uz68m5Np5U6-110" vertex="1">
          <mxGeometry x="360" width="120" height="40" as="geometry">
            <mxRectangle width="120" height="40" as="alternateBounds" />
          </mxGeometry>
        </mxCell>
        <mxCell id="KPfUx6lq5Uz68m5Np5U6-115" value="" style="edgeStyle=elbowEdgeStyle;elbow=vertical;endArrow=classic;html=1;curved=0;rounded=0;endSize=8;startSize=8;exitX=0.039;exitY=-0.05;exitDx=0;exitDy=0;exitPerimeter=0;" parent="1" edge="1">
          <mxGeometry width="50" height="50" relative="1" as="geometry">
            <mxPoint x="179.9999999999999" y="1368" as="sourcePoint" />
            <mxPoint x="299" y="1360" as="targetPoint" />
            <Array as="points">
              <mxPoint x="250" y="1330" />
              <mxPoint x="273.84000000000003" y="1290" />
            </Array>
          </mxGeometry>
        </mxCell>
        <mxCell id="KPfUx6lq5Uz68m5Np5U6-116" value="" style="edgeStyle=segmentEdgeStyle;endArrow=classic;html=1;curved=0;rounded=0;endSize=8;startSize=8;" parent="1" edge="1">
          <mxGeometry width="50" height="50" relative="1" as="geometry">
            <mxPoint x="290" y="1330" as="sourcePoint" />
            <mxPoint x="420" y="1360" as="targetPoint" />
            <Array as="points">
              <mxPoint x="290" y="1330" />
              <mxPoint x="420" y="1330" />
            </Array>
          </mxGeometry>
        </mxCell>
        <mxCell id="KPfUx6lq5Uz68m5Np5U6-117" value="" style="edgeStyle=segmentEdgeStyle;endArrow=classic;html=1;curved=0;rounded=0;endSize=8;startSize=8;" parent="1" edge="1">
          <mxGeometry width="50" height="50" relative="1" as="geometry">
            <mxPoint x="410" y="1330" as="sourcePoint" />
            <mxPoint x="540" y="1360" as="targetPoint" />
            <Array as="points">
              <mxPoint x="410" y="1330" />
              <mxPoint x="540" y="1330" />
            </Array>
          </mxGeometry>
        </mxCell>
        <mxCell id="KPfUx6lq5Uz68m5Np5U6-118" value="" style="edgeStyle=segmentEdgeStyle;endArrow=classic;html=1;curved=0;rounded=0;endSize=8;startSize=8;" parent="1" edge="1">
          <mxGeometry width="50" height="50" relative="1" as="geometry">
            <mxPoint x="530" y="1330" as="sourcePoint" />
            <mxPoint x="660" y="1360" as="targetPoint" />
            <Array as="points">
              <mxPoint x="530" y="1330" />
              <mxPoint x="660" y="1330" />
            </Array>
          </mxGeometry>
        </mxCell>
        <mxCell id="KPfUx6lq5Uz68m5Np5U6-119" value="" style="edgeStyle=segmentEdgeStyle;endArrow=classic;html=1;curved=0;rounded=0;endSize=8;startSize=8;" parent="1" edge="1">
          <mxGeometry width="50" height="50" relative="1" as="geometry">
            <mxPoint x="650" y="1330" as="sourcePoint" />
            <mxPoint x="780" y="1360" as="targetPoint" />
            <Array as="points">
              <mxPoint x="650" y="1330" />
              <mxPoint x="780" y="1330" />
            </Array>
          </mxGeometry>
        </mxCell>
        <mxCell id="KPfUx6lq5Uz68m5Np5U6-120" value="" style="edgeStyle=elbowEdgeStyle;elbow=vertical;endArrow=classic;html=1;curved=0;rounded=0;endSize=8;startSize=8;exitX=0.039;exitY=-0.05;exitDx=0;exitDy=0;exitPerimeter=0;" parent="1" edge="1">
          <mxGeometry width="50" height="50" relative="1" as="geometry">
            <mxPoint x="180" y="1530" as="sourcePoint" />
            <mxPoint x="300" y="1520" as="targetPoint" />
            <Array as="points">
              <mxPoint x="240" y="1490" />
            </Array>
          </mxGeometry>
        </mxCell>
        <mxCell id="KPfUx6lq5Uz68m5Np5U6-121" value="" style="edgeStyle=elbowEdgeStyle;elbow=vertical;endArrow=classic;html=1;curved=0;rounded=0;endSize=8;startSize=8;exitX=0.039;exitY=-0.05;exitDx=0;exitDy=0;exitPerimeter=0;" parent="1" edge="1">
          <mxGeometry width="50" height="50" relative="1" as="geometry">
            <mxPoint x="180" y="1690" as="sourcePoint" />
            <mxPoint x="300" y="1680" as="targetPoint" />
            <Array as="points">
              <mxPoint x="240" y="1650" />
            </Array>
          </mxGeometry>
        </mxCell>
        <mxCell id="KPfUx6lq5Uz68m5Np5U6-125" value="" style="shape=partialRectangle;whiteSpace=wrap;html=1;bottom=1;right=1;left=1;top=0;fillColor=none;routingCenterX=-0.5;rotation=-180;" parent="1" vertex="1">
          <mxGeometry x="180" y="1810" width="120" height="40" as="geometry" />
        </mxCell>
        <mxCell id="KPfUx6lq5Uz68m5Np5U6-126" value="" style="edgeStyle=segmentEdgeStyle;endArrow=classic;html=1;curved=0;rounded=0;endSize=8;startSize=8;exitX=0;exitY=1;exitDx=0;exitDy=0;" parent="1" source="KPfUx6lq5Uz68m5Np5U6-125" edge="1">
          <mxGeometry width="50" height="50" relative="1" as="geometry">
            <mxPoint x="330" y="1810" as="sourcePoint" />
            <mxPoint x="420" y="1840" as="targetPoint" />
          </mxGeometry>
        </mxCell>
        <mxCell id="KPfUx6lq5Uz68m5Np5U6-127" value="" style="edgeStyle=segmentEdgeStyle;endArrow=classic;html=1;curved=0;rounded=0;endSize=8;startSize=8;exitX=0;exitY=1;exitDx=0;exitDy=0;" parent="1" edge="1">
          <mxGeometry width="50" height="50" relative="1" as="geometry">
            <mxPoint x="420" y="1810" as="sourcePoint" />
            <mxPoint x="540" y="1840" as="targetPoint" />
          </mxGeometry>
        </mxCell>
        <mxCell id="KPfUx6lq5Uz68m5Np5U6-128" value="Material" style="text;strokeColor=none;fillColor=none;html=1;fontSize=24;fontStyle=1;verticalAlign=middle;align=left;" parent="1" vertex="1">
          <mxGeometry x="120" y="1290" width="160" height="40" as="geometry" />
        </mxCell>
        <mxCell id="KPfUx6lq5Uz68m5Np5U6-129" value="Vendor" style="text;strokeColor=none;fillColor=none;html=1;fontSize=24;fontStyle=1;verticalAlign=middle;align=left;" parent="1" vertex="1">
          <mxGeometry x="120" y="1450" width="160" height="40" as="geometry" />
        </mxCell>
        <mxCell id="KPfUx6lq5Uz68m5Np5U6-130" value="Terms" style="text;strokeColor=none;fillColor=none;html=1;fontSize=24;fontStyle=1;verticalAlign=middle;align=left;" parent="1" vertex="1">
          <mxGeometry x="120" y="1610" width="160" height="40" as="geometry" />
        </mxCell>
        <mxCell id="KPfUx6lq5Uz68m5Np5U6-131" value="Purchase" style="text;strokeColor=none;fillColor=none;html=1;fontSize=24;fontStyle=1;verticalAlign=middle;align=left;" parent="1" vertex="1">
          <mxGeometry x="120" y="1770" width="160" height="40" as="geometry" />
        </mxCell>
        <mxCell id="c63ihOJItv_DyvJpRtCl-1" value="" style="shape=table;startSize=0;container=1;collapsible=0;childLayout=tableLayout;fontSize=16;" vertex="1" parent="1">
          <mxGeometry x="120" y="2540" width="600" height="40" as="geometry" />
        </mxCell>
        <mxCell id="c63ihOJItv_DyvJpRtCl-2" value="" style="shape=tableRow;horizontal=0;startSize=0;swimlaneHead=0;swimlaneBody=0;strokeColor=inherit;top=0;left=0;bottom=0;right=0;collapsible=0;dropTarget=0;fillColor=none;points=[[0,0.5],[1,0.5]];portConstraint=eastwest;fontSize=16;" vertex="1" parent="c63ihOJItv_DyvJpRtCl-1">
          <mxGeometry width="600" height="40" as="geometry" />
        </mxCell>
        <mxCell id="c63ihOJItv_DyvJpRtCl-3" value="&lt;u&gt;Material_ID&lt;/u&gt;" style="shape=partialRectangle;html=1;whiteSpace=wrap;connectable=0;strokeColor=inherit;overflow=hidden;fillColor=none;top=0;left=0;bottom=0;right=0;pointerEvents=1;fontSize=16;" vertex="1" parent="c63ihOJItv_DyvJpRtCl-2">
          <mxGeometry width="120" height="40" as="geometry">
            <mxRectangle width="120" height="40" as="alternateBounds" />
          </mxGeometry>
        </mxCell>
        <mxCell id="c63ihOJItv_DyvJpRtCl-4" value="Material_Name" style="shape=partialRectangle;html=1;whiteSpace=wrap;connectable=0;strokeColor=inherit;overflow=hidden;fillColor=none;top=0;left=0;bottom=0;right=0;pointerEvents=1;fontSize=16;" vertex="1" parent="c63ihOJItv_DyvJpRtCl-2">
          <mxGeometry x="120" width="120" height="40" as="geometry">
            <mxRectangle width="120" height="40" as="alternateBounds" />
          </mxGeometry>
        </mxCell>
        <mxCell id="c63ihOJItv_DyvJpRtCl-5" value="Material_Type" style="shape=partialRectangle;html=1;whiteSpace=wrap;connectable=0;strokeColor=inherit;overflow=hidden;fillColor=none;top=0;left=0;bottom=0;right=0;pointerEvents=1;fontSize=16;" vertex="1" parent="c63ihOJItv_DyvJpRtCl-2">
          <mxGeometry x="240" width="120" height="40" as="geometry">
            <mxRectangle width="120" height="40" as="alternateBounds" />
          </mxGeometry>
        </mxCell>
        <mxCell id="c63ihOJItv_DyvJpRtCl-6" value="&lt;i&gt;Units&lt;/i&gt;" style="shape=partialRectangle;html=1;whiteSpace=wrap;connectable=0;strokeColor=inherit;overflow=hidden;fillColor=none;top=0;left=0;bottom=0;right=0;pointerEvents=1;fontSize=16;" vertex="1" parent="c63ihOJItv_DyvJpRtCl-2">
          <mxGeometry x="360" width="120" height="40" as="geometry">
            <mxRectangle width="120" height="40" as="alternateBounds" />
          </mxGeometry>
        </mxCell>
        <mxCell id="c63ihOJItv_DyvJpRtCl-8" value="&lt;i&gt;Unit_Price&lt;/i&gt;" style="shape=partialRectangle;html=1;whiteSpace=wrap;connectable=0;strokeColor=inherit;overflow=hidden;fillColor=none;top=0;left=0;bottom=0;right=0;pointerEvents=1;fontSize=16;" vertex="1" parent="c63ihOJItv_DyvJpRtCl-2">
          <mxGeometry x="480" width="120" height="40" as="geometry">
            <mxRectangle width="120" height="40" as="alternateBounds" />
          </mxGeometry>
        </mxCell>
        <mxCell id="c63ihOJItv_DyvJpRtCl-9" value="" style="shape=table;startSize=0;container=1;collapsible=0;childLayout=tableLayout;fontSize=16;" vertex="1" parent="1">
          <mxGeometry x="120" y="2700" width="360" height="40" as="geometry" />
        </mxCell>
        <mxCell id="c63ihOJItv_DyvJpRtCl-10" value="" style="shape=tableRow;horizontal=0;startSize=0;swimlaneHead=0;swimlaneBody=0;strokeColor=inherit;top=0;left=0;bottom=0;right=0;collapsible=0;dropTarget=0;fillColor=none;points=[[0,0.5],[1,0.5]];portConstraint=eastwest;fontSize=16;" vertex="1" parent="c63ihOJItv_DyvJpRtCl-9">
          <mxGeometry width="360" height="40" as="geometry" />
        </mxCell>
        <mxCell id="c63ihOJItv_DyvJpRtCl-14" value="Unit_Price" style="shape=partialRectangle;html=1;whiteSpace=wrap;connectable=0;strokeColor=inherit;overflow=hidden;fillColor=none;top=0;left=0;bottom=0;right=0;pointerEvents=1;fontSize=16;" vertex="1" parent="c63ihOJItv_DyvJpRtCl-10">
          <mxGeometry width="120" height="40" as="geometry">
            <mxRectangle width="120" height="40" as="alternateBounds" />
          </mxGeometry>
        </mxCell>
        <mxCell id="c63ihOJItv_DyvJpRtCl-15" value="Units" style="shape=partialRectangle;html=1;whiteSpace=wrap;connectable=0;strokeColor=inherit;overflow=hidden;fillColor=none;top=0;left=0;bottom=0;right=0;pointerEvents=1;fontSize=16;" vertex="1" parent="c63ihOJItv_DyvJpRtCl-10">
          <mxGeometry x="120" width="120" height="40" as="geometry">
            <mxRectangle width="120" height="40" as="alternateBounds" />
          </mxGeometry>
        </mxCell>
        <mxCell id="c63ihOJItv_DyvJpRtCl-16" value="Cost" style="shape=partialRectangle;html=1;whiteSpace=wrap;connectable=0;strokeColor=inherit;overflow=hidden;fillColor=none;top=0;left=0;bottom=0;right=0;pointerEvents=1;fontSize=16;" vertex="1" parent="c63ihOJItv_DyvJpRtCl-10">
          <mxGeometry x="240" width="120" height="40" as="geometry">
            <mxRectangle width="120" height="40" as="alternateBounds" />
          </mxGeometry>
        </mxCell>
        <mxCell id="c63ihOJItv_DyvJpRtCl-17" value="" style="shape=table;startSize=0;container=1;collapsible=0;childLayout=tableLayout;fontSize=16;" vertex="1" parent="1">
          <mxGeometry x="120" y="3020" width="240" height="40" as="geometry" />
        </mxCell>
        <mxCell id="c63ihOJItv_DyvJpRtCl-18" value="" style="shape=tableRow;horizontal=0;startSize=0;swimlaneHead=0;swimlaneBody=0;strokeColor=inherit;top=0;left=0;bottom=0;right=0;collapsible=0;dropTarget=0;fillColor=none;points=[[0,0.5],[1,0.5]];portConstraint=eastwest;fontSize=16;" vertex="1" parent="c63ihOJItv_DyvJpRtCl-17">
          <mxGeometry width="240" height="40" as="geometry" />
        </mxCell>
        <mxCell id="c63ihOJItv_DyvJpRtCl-19" value="&lt;u&gt;Vendor_ID&lt;/u&gt;" style="shape=partialRectangle;html=1;whiteSpace=wrap;connectable=0;strokeColor=inherit;overflow=hidden;fillColor=none;top=0;left=0;bottom=0;right=0;pointerEvents=1;fontSize=16;" vertex="1" parent="c63ihOJItv_DyvJpRtCl-18">
          <mxGeometry width="120" height="40" as="geometry">
            <mxRectangle width="120" height="40" as="alternateBounds" />
          </mxGeometry>
        </mxCell>
        <mxCell id="c63ihOJItv_DyvJpRtCl-20" value="Vendor_Name" style="shape=partialRectangle;html=1;whiteSpace=wrap;connectable=0;strokeColor=inherit;overflow=hidden;fillColor=none;top=0;left=0;bottom=0;right=0;pointerEvents=1;fontSize=16;" vertex="1" parent="c63ihOJItv_DyvJpRtCl-18">
          <mxGeometry x="120" width="120" height="40" as="geometry">
            <mxRectangle width="120" height="40" as="alternateBounds" />
          </mxGeometry>
        </mxCell>
        <mxCell id="c63ihOJItv_DyvJpRtCl-31" value="Material" style="text;strokeColor=none;fillColor=none;html=1;fontSize=24;fontStyle=1;verticalAlign=middle;align=left;" vertex="1" parent="1">
          <mxGeometry x="120" y="2460" width="160" height="40" as="geometry" />
        </mxCell>
        <mxCell id="c63ihOJItv_DyvJpRtCl-32" value="" style="edgeStyle=elbowEdgeStyle;elbow=vertical;endArrow=classic;html=1;curved=0;rounded=0;endSize=8;startSize=8;exitX=0.039;exitY=-0.05;exitDx=0;exitDy=0;exitPerimeter=0;" edge="1" parent="1">
          <mxGeometry width="50" height="50" relative="1" as="geometry">
            <mxPoint x="179.9999999999999" y="2538" as="sourcePoint" />
            <mxPoint x="299" y="2530" as="targetPoint" />
            <Array as="points">
              <mxPoint x="250" y="2500" />
              <mxPoint x="273.84000000000003" y="2460" />
            </Array>
          </mxGeometry>
        </mxCell>
        <mxCell id="c63ihOJItv_DyvJpRtCl-33" value="" style="edgeStyle=segmentEdgeStyle;endArrow=classic;html=1;curved=0;rounded=0;endSize=8;startSize=8;" edge="1" parent="1">
          <mxGeometry width="50" height="50" relative="1" as="geometry">
            <mxPoint x="290" y="2500" as="sourcePoint" />
            <mxPoint x="420" y="2530" as="targetPoint" />
            <Array as="points">
              <mxPoint x="290" y="2500" />
              <mxPoint x="420" y="2500" />
            </Array>
          </mxGeometry>
        </mxCell>
        <mxCell id="c63ihOJItv_DyvJpRtCl-34" value="" style="edgeStyle=segmentEdgeStyle;endArrow=classic;html=1;curved=0;rounded=0;endSize=8;startSize=8;" edge="1" parent="1">
          <mxGeometry width="50" height="50" relative="1" as="geometry">
            <mxPoint x="410" y="2500" as="sourcePoint" />
            <mxPoint x="540" y="2530" as="targetPoint" />
            <Array as="points">
              <mxPoint x="410" y="2500" />
              <mxPoint x="540" y="2500" />
            </Array>
          </mxGeometry>
        </mxCell>
        <mxCell id="c63ihOJItv_DyvJpRtCl-35" value="" style="edgeStyle=segmentEdgeStyle;endArrow=classic;html=1;curved=0;rounded=0;endSize=8;startSize=8;" edge="1" parent="1">
          <mxGeometry width="50" height="50" relative="1" as="geometry">
            <mxPoint x="530" y="2500" as="sourcePoint" />
            <mxPoint x="660" y="2530" as="targetPoint" />
            <Array as="points">
              <mxPoint x="530" y="2500" />
              <mxPoint x="660" y="2500" />
            </Array>
          </mxGeometry>
        </mxCell>
        <mxCell id="c63ihOJItv_DyvJpRtCl-36" value="" style="edgeStyle=elbowEdgeStyle;elbow=vertical;endArrow=classic;html=1;curved=0;rounded=0;endSize=8;startSize=8;exitX=0.039;exitY=-0.05;exitDx=0;exitDy=0;exitPerimeter=0;" edge="1" parent="1">
          <mxGeometry width="50" height="50" relative="1" as="geometry">
            <mxPoint x="180" y="3020" as="sourcePoint" />
            <mxPoint x="300" y="3010" as="targetPoint" />
            <Array as="points">
              <mxPoint x="240" y="2980" />
            </Array>
          </mxGeometry>
        </mxCell>
        <mxCell id="c63ihOJItv_DyvJpRtCl-38" value="Cost" style="text;strokeColor=none;fillColor=none;html=1;fontSize=24;fontStyle=1;verticalAlign=middle;align=left;" vertex="1" parent="1">
          <mxGeometry x="120" y="2621" width="160" height="40" as="geometry" />
        </mxCell>
        <mxCell id="c63ihOJItv_DyvJpRtCl-21" value="" style="shape=table;startSize=0;container=1;collapsible=0;childLayout=tableLayout;fontSize=16;" vertex="1" parent="1">
          <mxGeometry x="120" y="3180" width="240" height="40" as="geometry" />
        </mxCell>
        <mxCell id="c63ihOJItv_DyvJpRtCl-22" value="" style="shape=tableRow;horizontal=0;startSize=0;swimlaneHead=0;swimlaneBody=0;strokeColor=inherit;top=0;left=0;bottom=0;right=0;collapsible=0;dropTarget=0;fillColor=none;points=[[0,0.5],[1,0.5]];portConstraint=eastwest;fontSize=16;" vertex="1" parent="c63ihOJItv_DyvJpRtCl-21">
          <mxGeometry width="240" height="40" as="geometry" />
        </mxCell>
        <mxCell id="c63ihOJItv_DyvJpRtCl-23" value="&lt;u&gt;Terms_Code&lt;/u&gt;" style="shape=partialRectangle;html=1;whiteSpace=wrap;connectable=0;strokeColor=inherit;overflow=hidden;fillColor=none;top=0;left=0;bottom=0;right=0;pointerEvents=1;fontSize=16;" vertex="1" parent="c63ihOJItv_DyvJpRtCl-22">
          <mxGeometry width="120" height="40" as="geometry">
            <mxRectangle width="120" height="40" as="alternateBounds" />
          </mxGeometry>
        </mxCell>
        <mxCell id="c63ihOJItv_DyvJpRtCl-24" value="Terms" style="shape=partialRectangle;html=1;whiteSpace=wrap;connectable=0;strokeColor=inherit;overflow=hidden;fillColor=none;top=0;left=0;bottom=0;right=0;pointerEvents=1;fontSize=16;" vertex="1" parent="c63ihOJItv_DyvJpRtCl-22">
          <mxGeometry x="120" width="120" height="40" as="geometry">
            <mxRectangle width="120" height="40" as="alternateBounds" />
          </mxGeometry>
        </mxCell>
        <mxCell id="c63ihOJItv_DyvJpRtCl-25" value="" style="shape=table;startSize=0;container=1;collapsible=0;childLayout=tableLayout;fontSize=16;" vertex="1" parent="1">
          <mxGeometry x="120" y="2860" width="480" height="40" as="geometry" />
        </mxCell>
        <mxCell id="c63ihOJItv_DyvJpRtCl-26" value="" style="shape=tableRow;horizontal=0;startSize=0;swimlaneHead=0;swimlaneBody=0;strokeColor=inherit;top=0;left=0;bottom=0;right=0;collapsible=0;dropTarget=0;fillColor=none;points=[[0,0.5],[1,0.5]];portConstraint=eastwest;fontSize=16;" vertex="1" parent="c63ihOJItv_DyvJpRtCl-25">
          <mxGeometry width="480" height="40" as="geometry" />
        </mxCell>
        <mxCell id="c63ihOJItv_DyvJpRtCl-27" value="&lt;u&gt;Material_ID&lt;/u&gt;" style="shape=partialRectangle;html=1;whiteSpace=wrap;connectable=0;strokeColor=inherit;overflow=hidden;fillColor=none;top=0;left=0;bottom=0;right=0;pointerEvents=1;fontSize=16;" vertex="1" parent="c63ihOJItv_DyvJpRtCl-26">
          <mxGeometry width="120" height="40" as="geometry">
            <mxRectangle width="120" height="40" as="alternateBounds" />
          </mxGeometry>
        </mxCell>
        <mxCell id="c63ihOJItv_DyvJpRtCl-28" value="&lt;u&gt;Vendor_ID&lt;/u&gt;" style="shape=partialRectangle;html=1;whiteSpace=wrap;connectable=0;strokeColor=inherit;overflow=hidden;fillColor=none;top=0;left=0;bottom=0;right=0;pointerEvents=1;fontSize=16;" vertex="1" parent="c63ihOJItv_DyvJpRtCl-26">
          <mxGeometry x="120" width="120" height="40" as="geometry">
            <mxRectangle width="120" height="40" as="alternateBounds" />
          </mxGeometry>
        </mxCell>
        <mxCell id="c63ihOJItv_DyvJpRtCl-29" value="Purch_Date" style="shape=partialRectangle;html=1;whiteSpace=wrap;connectable=0;strokeColor=inherit;overflow=hidden;fillColor=none;top=0;left=0;bottom=0;right=0;pointerEvents=1;fontSize=16;" vertex="1" parent="c63ihOJItv_DyvJpRtCl-26">
          <mxGeometry x="240" width="120" height="40" as="geometry">
            <mxRectangle width="120" height="40" as="alternateBounds" />
          </mxGeometry>
        </mxCell>
        <mxCell id="c63ihOJItv_DyvJpRtCl-30" value="Deliv_Date" style="shape=partialRectangle;html=1;whiteSpace=wrap;connectable=0;strokeColor=inherit;overflow=hidden;fillColor=none;top=0;left=0;bottom=0;right=0;pointerEvents=1;fontSize=16;" vertex="1" parent="c63ihOJItv_DyvJpRtCl-26">
          <mxGeometry x="360" width="120" height="40" as="geometry">
            <mxRectangle width="120" height="40" as="alternateBounds" />
          </mxGeometry>
        </mxCell>
        <mxCell id="c63ihOJItv_DyvJpRtCl-37" value="" style="edgeStyle=elbowEdgeStyle;elbow=vertical;endArrow=classic;html=1;curved=0;rounded=0;endSize=8;startSize=8;exitX=0.039;exitY=-0.05;exitDx=0;exitDy=0;exitPerimeter=0;" edge="1" parent="1">
          <mxGeometry width="50" height="50" relative="1" as="geometry">
            <mxPoint x="180" y="3180" as="sourcePoint" />
            <mxPoint x="300" y="3170" as="targetPoint" />
            <Array as="points">
              <mxPoint x="240" y="3140" />
            </Array>
          </mxGeometry>
        </mxCell>
        <mxCell id="c63ihOJItv_DyvJpRtCl-45" value="Vendor" style="text;strokeColor=none;fillColor=none;html=1;fontSize=24;fontStyle=1;verticalAlign=middle;align=left;" vertex="1" parent="1">
          <mxGeometry x="120" y="2940" width="160" height="40" as="geometry" />
        </mxCell>
        <mxCell id="c63ihOJItv_DyvJpRtCl-46" value="Terms" style="text;strokeColor=none;fillColor=none;html=1;fontSize=24;fontStyle=1;verticalAlign=middle;align=left;" vertex="1" parent="1">
          <mxGeometry x="120" y="3100" width="160" height="40" as="geometry" />
        </mxCell>
        <mxCell id="c63ihOJItv_DyvJpRtCl-48" value="Purchase" style="text;strokeColor=none;fillColor=none;html=1;fontSize=24;fontStyle=1;verticalAlign=middle;align=left;" vertex="1" parent="1">
          <mxGeometry x="120" y="2780" width="160" height="40" as="geometry" />
        </mxCell>
        <mxCell id="c63ihOJItv_DyvJpRtCl-49" value="" style="shape=partialRectangle;whiteSpace=wrap;html=1;bottom=1;right=1;left=1;top=0;fillColor=none;routingCenterX=-0.5;rotation=-180;" vertex="1" parent="1">
          <mxGeometry x="180" y="2820" width="120" height="40" as="geometry" />
        </mxCell>
        <mxCell id="c63ihOJItv_DyvJpRtCl-50" value="" style="edgeStyle=segmentEdgeStyle;endArrow=classic;html=1;curved=0;rounded=0;endSize=8;startSize=8;exitX=0;exitY=1;exitDx=0;exitDy=0;" edge="1" parent="1" source="c63ihOJItv_DyvJpRtCl-49">
          <mxGeometry width="50" height="50" relative="1" as="geometry">
            <mxPoint x="330" y="2820" as="sourcePoint" />
            <mxPoint x="420" y="2850" as="targetPoint" />
          </mxGeometry>
        </mxCell>
        <mxCell id="c63ihOJItv_DyvJpRtCl-51" value="" style="edgeStyle=segmentEdgeStyle;endArrow=classic;html=1;curved=0;rounded=0;endSize=8;startSize=8;exitX=0;exitY=1;exitDx=0;exitDy=0;" edge="1" parent="1">
          <mxGeometry width="50" height="50" relative="1" as="geometry">
            <mxPoint x="420" y="2820" as="sourcePoint" />
            <mxPoint x="540" y="2850" as="targetPoint" />
          </mxGeometry>
        </mxCell>
        <mxCell id="c63ihOJItv_DyvJpRtCl-52" value="" style="edgeStyle=elbowEdgeStyle;elbow=vertical;endArrow=classic;html=1;curved=0;rounded=0;endSize=8;startSize=8;" edge="1" parent="1">
          <mxGeometry width="50" height="50" relative="1" as="geometry">
            <mxPoint x="660" y="1410" as="sourcePoint" />
            <mxPoint x="780" y="1420" as="targetPoint" />
            <Array as="points">
              <mxPoint x="660" y="1450" />
            </Array>
          </mxGeometry>
        </mxCell>
        <mxCell id="c63ihOJItv_DyvJpRtCl-54" value="" style="shape=partialRectangle;whiteSpace=wrap;html=1;bottom=1;right=1;left=1;top=0;fillColor=none;routingCenterX=-0.5;" vertex="1" parent="1">
          <mxGeometry x="540" y="1410" width="120" height="40" as="geometry" />
        </mxCell>
        <mxCell id="c63ihOJItv_DyvJpRtCl-55" value="" style="edgeStyle=elbowEdgeStyle;elbow=horizontal;endArrow=classic;html=1;curved=0;rounded=0;endSize=8;startSize=8;exitX=0;exitY=0.5;exitDx=0;exitDy=0;" edge="1" parent="1" source="c63ihOJItv_DyvJpRtCl-26">
          <mxGeometry width="50" height="50" relative="1" as="geometry">
            <mxPoint x="60" y="2610" as="sourcePoint" />
            <mxPoint x="110" y="2560" as="targetPoint" />
            <Array as="points">
              <mxPoint x="80" y="2720" />
            </Array>
          </mxGeometry>
        </mxCell>
        <mxCell id="c63ihOJItv_DyvJpRtCl-56" value="" style="edgeStyle=elbowEdgeStyle;elbow=horizontal;endArrow=classic;html=1;curved=0;rounded=0;endSize=8;startSize=8;" edge="1" parent="1">
          <mxGeometry width="50" height="50" relative="1" as="geometry">
            <mxPoint x="300" y="2920" as="sourcePoint" />
            <mxPoint x="110" y="3040" as="targetPoint" />
            <Array as="points">
              <mxPoint x="80" y="2970" />
            </Array>
          </mxGeometry>
        </mxCell>
        <mxCell id="c63ihOJItv_DyvJpRtCl-60" value="" style="shape=partialRectangle;whiteSpace=wrap;html=1;bottom=0;right=0;fillColor=none;rotation=-180;" vertex="1" parent="1">
          <mxGeometry x="180" y="2900" width="120" height="20" as="geometry" />
        </mxCell>
        <mxCell id="c63ihOJItv_DyvJpRtCl-61" value="" style="shape=partialRectangle;whiteSpace=wrap;html=1;bottom=1;right=1;left=1;top=0;fillColor=none;routingCenterX=-0.5;rotation=-180;" vertex="1" parent="1">
          <mxGeometry x="180" y="2660" width="120" height="40" as="geometry" />
        </mxCell>
        <mxCell id="c63ihOJItv_DyvJpRtCl-62" value="" style="edgeStyle=segmentEdgeStyle;endArrow=classic;html=1;curved=0;rounded=0;endSize=8;startSize=8;exitX=0;exitY=1;exitDx=0;exitDy=0;" edge="1" parent="1" source="c63ihOJItv_DyvJpRtCl-61">
          <mxGeometry width="50" height="50" relative="1" as="geometry">
            <mxPoint x="330" y="2660" as="sourcePoint" />
            <mxPoint x="420" y="2690" as="targetPoint" />
          </mxGeometry>
        </mxCell>
        <mxCell id="c63ihOJItv_DyvJpRtCl-63" value="" style="edgeStyle=segmentEdgeStyle;endArrow=classic;html=1;curved=0;rounded=0;endSize=8;startSize=8;exitX=0.9;exitY=1;exitDx=0;exitDy=0;exitPerimeter=0;" edge="1" parent="1" source="c63ihOJItv_DyvJpRtCl-2">
          <mxGeometry width="50" height="50" relative="1" as="geometry">
            <mxPoint x="660" y="2590" as="sourcePoint" />
            <mxPoint x="180" y="2750" as="targetPoint" />
            <Array as="points">
              <mxPoint x="660" y="2780" />
              <mxPoint x="180" y="2780" />
            </Array>
          </mxGeometry>
        </mxCell>
        <mxCell id="c63ihOJItv_DyvJpRtCl-64" value="" style="edgeStyle=segmentEdgeStyle;endArrow=classic;html=1;curved=0;rounded=0;endSize=8;startSize=8;" edge="1" parent="1" source="c63ihOJItv_DyvJpRtCl-2">
          <mxGeometry width="50" height="50" relative="1" as="geometry">
            <mxPoint x="540" y="2620" as="sourcePoint" />
            <mxPoint x="300" y="2740" as="targetPoint" />
            <Array as="points">
              <mxPoint x="540" y="2760" />
              <mxPoint x="300" y="2760" />
            </Array>
          </mxGeometry>
        </mxCell>
        <mxCell id="c63ihOJItv_DyvJpRtCl-68" value="2NF" style="text;strokeColor=none;fillColor=none;html=1;fontSize=32;fontStyle=1;verticalAlign=middle;align=left;" vertex="1" parent="1">
          <mxGeometry x="40" y="1210" width="400" height="60" as="geometry" />
        </mxCell>
        <mxCell id="c63ihOJItv_DyvJpRtCl-69" value="1NF" style="text;strokeColor=none;fillColor=none;html=1;fontSize=32;fontStyle=1;verticalAlign=middle;align=left;" vertex="1" parent="1">
          <mxGeometry x="40" y="40" width="400" height="60" as="geometry" />
        </mxCell>
        <mxCell id="c63ihOJItv_DyvJpRtCl-70" value="3NF" style="text;strokeColor=none;fillColor=none;html=1;fontSize=32;fontStyle=1;verticalAlign=middle;align=left;" vertex="1" parent="1">
          <mxGeometry x="40" y="2380" width="400" height="60" as="geometry" />
        </mxCell>
      </root>
    </mxGraphModel>
  </diagram>
</mxfile>
